<svg xmlns="http://www.w3.org/2000/svg" style="display: none;">
  <!-- VISA -->
  <symbol id="visa" viewBox="0 0 37 24">
    <g clip-path="url(#clip0_4319_4117)">
      <path d="M0.449759 3C0.449759 1.48098 1.68117 0.249563 3.2002 0.249563H33.2002C34.7192 0.249563 35.9506 1.48098 35.9506 3V21C35.9506 22.519 34.7192 23.7504 33.2002 23.7504H3.20019C1.68117 23.7504 0.449759 22.519 0.449759 21V3Z" fill="white" stroke="#E0E0E0" stroke-width="0.499127"/>
      <path d="M31.182 7.52612H29.296C28.7259 7.52612 28.2873 7.70156 28.0241 8.27174L24.4276 16.4735H26.9715C26.9715 16.4735 27.4101 15.377 27.4978 15.1138C27.7609 15.1138 30.2609 15.1138 30.6118 15.1138C30.6995 15.4209 30.9188 16.4296 30.9188 16.4296H33.1995L31.182 7.52612ZM28.1995 13.2717C28.4188 12.7454 29.1645 10.7717 29.1645 10.7717C29.1645 10.8156 29.3838 10.2454 29.4715 9.9384L29.6469 10.7279C29.6469 10.7279 30.1294 12.877 30.2171 13.3156H28.1995V13.2717Z" fill="#3362AB"/>
      <path d="M24.6034 13.5346C24.6034 15.3767 22.9368 16.6048 20.3491 16.6048C19.2526 16.6048 18.1999 16.3855 17.6298 16.1224L17.9806 14.1048L18.2877 14.2364C19.0771 14.5873 19.6034 14.7188 20.5684 14.7188C21.2701 14.7188 22.0157 14.4557 22.0157 13.8417C22.0157 13.4469 21.7087 13.1838 20.7438 12.7452C19.8227 12.3066 18.5947 11.6048 18.5947 10.3329C18.5947 8.5785 20.3052 7.39429 22.7175 7.39429C23.6385 7.39429 24.428 7.56973 24.9105 7.78902L24.5596 9.71885L24.3841 9.54341C23.9455 9.36797 23.3754 9.19253 22.542 9.19253C21.621 9.23639 21.1824 9.63113 21.1824 9.98201C21.1824 10.3767 21.7087 10.6838 22.542 11.0785C23.9455 11.7364 24.6034 12.482 24.6034 13.5346Z" fill="#3362AB"/>
      <path d="M3.19983 7.61306L3.24369 7.43762H7.01562C7.54193 7.43762 7.93667 7.61306 8.06825 8.18324L8.90158 12.1306C8.06825 10.0253 6.13843 8.31482 3.19983 7.61306Z" fill="#F9B50B"/>
      <path d="M14.2089 7.52604L10.3931 16.4295H7.80541L5.61243 8.97341C7.19137 9.98218 8.50716 11.5611 8.98962 12.6576L9.25278 13.5787L11.6212 7.48218H14.2089V7.52604Z" fill="#3362AB"/>
      <path d="M15.2173 7.48218H17.6296L16.0945 16.4295H13.6823L15.2173 7.48218Z" fill="#3362AB"/>
    </g>
    <defs>
      <clipPath id="clip0_4319_4117">
        <rect width="36" height="24" fill="white" transform="translate(0.200195)"/>
      </clipPath>
    </defs>
  </symbol>

  <!-- MASTERCARD -->
  <symbol id="mastercard" viewBox="0 0 37 24">
    <g clip-path="url(#clip0_4319_4118)">
      <path d="M0.449637 3C0.449637 1.48098 1.68105 0.249563 3.20007 0.249563H33.2001C34.7191 0.249563 35.9505 1.48098 35.9505 3V21C35.9505 22.519 34.7191 23.7504 33.2001 23.7504H3.20007C1.68105 23.7504 0.449637 22.519 0.449637 21V3Z" fill="white" stroke="#E0E0E0" stroke-width="0.499127"/>
      <path d="M21.957 4.89524L14.2102 4.92188L14.445 19.1042L22.1917 19.0776L21.957 4.89524Z" fill="#FF5F00"/>
      <path d="M14.7199 12.0415C14.672 9.15694 15.9642 6.59387 17.9882 4.93134C16.4604 3.73251 14.5451 3.01161 12.4689 3.01872C7.55023 3.03557 3.63791 7.08761 3.72086 12.0792C3.80381 17.0708 7.85035 21.0956 12.769 21.0787C14.8452 21.0716 16.7364 20.3377 18.2241 19.1285C16.1455 17.5051 14.7678 14.9261 14.7199 12.0415Z" fill="#EB001B"/>
      <path d="M32.6811 11.9207C32.764 16.9122 28.8517 20.9643 23.933 20.9811C21.8568 20.9882 19.9415 20.2674 18.4138 19.0685C20.4625 17.4059 21.73 14.8429 21.682 11.9583C21.6341 9.07376 20.2569 6.51983 18.1778 4.87136C19.6656 3.6622 21.5567 2.92826 23.6329 2.92115C28.5516 2.9043 32.5985 6.95417 32.6811 11.9207Z" fill="#F79E1B"/>
    </g>
    <defs>
      <clipPath id="clip0_4319_4118">
        <rect width="36" height="24" fill="white" transform="translate(0.000244141)"/>
      </clipPath>
    </defs>
  </symbol>

  <!-- AMEX -->
  <symbol id="amex" viewBox="0 0 35 24">
    <rect x="0.449759" y="0.249563" width="34.3009" height="23.5009" rx="2.7452" fill="white" stroke="#E0E0E0" stroke-width="0.499127"/>
    <path fill-rule="evenodd" clip-rule="evenodd" d="M6.84311 8.5L3.68018 15.7467H7.46665L7.93606 14.5913H9.00904L9.47845 15.7467H13.6463V14.8649L14.0177 15.7467H16.1736L16.545 14.8462V15.7467H25.213L26.267 14.6213L27.2539 15.7467L31.7059 15.7561L28.533 12.1436L31.7059 8.5H27.3229L26.2969 9.60463L25.3411 8.5H15.9115L15.1017 10.3704L14.273 8.5H10.4944V9.35186L10.0741 8.5H6.84311ZM19.787 9.5291H24.7646L26.287 11.2317L27.8584 9.5291H29.3808L27.0677 12.1426L29.3808 14.726H27.7894L26.267 13.0037L24.6875 14.726H19.787V9.5291ZM21.0162 11.555V10.6058V10.6049H24.1221L25.4773 12.123L24.062 13.6494H21.0162V12.6131H23.7317V11.555H21.0162ZM7.57583 9.5291H9.42154L11.5195 14.4432V9.5291H13.5414L15.1618 13.0525L16.6553 9.5291H18.6671V14.7291H17.4429L17.4329 10.6544L15.6483 14.7291H14.5532L12.7586 10.6544V14.7291H10.2403L9.76284 13.5633H7.18349L6.70705 14.7281H5.35776L7.57583 9.5291ZM7.62388 12.4856L8.47367 10.4089L9.32248 12.4856H7.62388Z" fill="#1F72CD"/>
  </symbol>

  <!-- DINERS CLUB -->
  <symbol id="diners-club" viewBox="0 0 36 24">
    <g clip-path="url(#clip0_4319_4120)">
      <path d="M0.249441 3C0.249441 1.48098 1.48085 0.249563 2.99988 0.249563H32.9999C34.5189 0.249563 35.7503 1.48098 35.7503 3V21C35.7503 22.519 34.5189 23.7504 32.9999 23.7504H2.99988C1.48085 23.7504 0.249441 22.519 0.249441 21V3Z" fill="white" stroke="#E0E0E0" stroke-width="0.499127"/>
      <path d="M29.3374 12.0783C29.3374 6.70929 24.8561 2.99838 19.9459 3H15.7205C10.7519 2.99822 6.66223 6.71042 6.66223 12.0783C6.66223 16.989 10.752 21.0237 15.7205 20.9999H19.9459C24.8557 21.0235 29.3374 16.9877 29.3374 12.0783Z" fill="#0079BE"/>
      <path d="M15.7471 3.75952C11.207 3.76093 7.52811 7.4485 7.52649 11.9996C7.52762 16.55 11.2067 20.237 15.7471 20.2386C20.2883 20.2373 23.9683 16.55 23.9689 11.9996C23.9683 7.44839 20.2884 3.76114 15.7471 3.75952Z" fill="white"/>
      <path d="M10.551 11.9792C10.5553 9.75525 11.9415 7.85881 13.8961 7.10522V16.8521C11.9415 16.0989 10.5553 14.2034 10.551 11.9792V11.9792ZM17.6257 16.8545V7.10549C19.5811 7.8573 20.9694 9.75482 20.9729 11.9798C20.9694 14.2054 19.5811 16.1016 17.6257 16.8548V16.8545Z" fill="#0079BE"/>
    </g>
    <defs>
      <clipPath id="clip0_4319_4120">
        <rect width="36" height="24" fill="white" transform="translate(0.000244141)"/>
      </clipPath>
    </defs>
  </symbol>

  <symbol id="discover" viewBox="0 0 36 24">
  <g clip-path="url(#clip0_4319_4121)">
    <path d="M0.24993 3C0.24993 1.48098 1.48134 0.249563 3.00037 0.249563H33.0004C34.5194 0.249563 35.7508 1.48098 35.7508 3V21C35.7508 22.519 34.5194 23.7504 33.0004 23.7504H3.00037C1.48134 23.7504 0.24993 22.519 0.24993 21V3Z" fill="white" stroke="#E0E0E0" stroke-width="0.499127"/>
    <path d="M17.5374 11.5449V13.0283H10.7151V11.5449H17.5374ZM14.926 8.75586V16.002H13.3333V8.75586H14.926ZM25.6516 13.4521V14.7646H18.4739L18.4192 13.7734L22.7122 7.04688H24.0315L22.6028 9.49414L20.135 13.4521H25.6516ZM24.4075 7.04688V17H22.76V7.04688H24.4075Z" fill="#333333"/>
  </g>
  <defs>
    <clipPath id="clip0_4319_4121">
      <rect width="36" height="24" fill="white" transform="translate(0.000244141)"/>
    </clipPath>
  </defs>
</symbol>

</svg>
